PathFileType	4	(X/Y/Z)	S1_rest_slow_right.trc
DataRate	CameraRate	NumFrames	NumMarkers	Units	OrigDataRate	OrigDataStartFrame	OrigNumFrames
250.00	250.00	13	18	mm	250.00	18805	25073
Frame#	Time	c7	r_should	l_should	clavicle	r_upa	r_elb_l	r_elb_m	r_low	r_wri_l	r_wri_m	r_met	l_upa	l_elb_l	l_elb_m	l_low	l_wri_l	l_wri_m	l_met
	X1	Y1	Z1	X2	Y2	Z2	X3	Y3	Z3	X4	Y4	Z4	X5	Y5	Z5	X6	Y6	Z6	X7	Y7	Z7	X8	Y8	Z8	X9	Y9	Z9	X10	Y10	Z10	X11	Y11	Z11	X12	Y12	Z12	X13	Y13	Z13	X14	Y14	Z14	X15	Y15	Z15	X16	Y16	Z16	X17	Y17	Z17	X18	Y18	Z18
18805	75.21600	370.81320	1412.96643	19.07722	423.99554	1362.01807	185.58974	419.72495	1365.64062	-174.73979	524.73975	1314.37097	-0.10963	476.32135	1162.44116	240.92935	509.25595	1119.40112	251.60933	520.65454	1058.15503	160.51332	619.58496	1125.00256	214.93105	649.12451	1230.30334	231.17249	667.95160	1208.59241	160.12238	723.84778	1264.31506	247.82358	418.57544	1155.28369	-241.57362	428.88409	1075.92200	-262.35400	369.05408	1036.86060	-190.74857	428.75769	929.44183	-271.58951	529.68530	871.82117	-244.44527	468.52463	839.73743	-264.76010	568.70831	800.78461	-269.15677
18806	75.22000	370.71112	1412.92090	19.11293	423.98422	1361.99341	185.61757	419.65079	1365.65405	-174.70456	524.70026	1314.42383	-0.09424	476.69250	1162.51636	240.87743	509.66425	1119.57190	251.49442	521.12018	1058.29456	160.38617	619.83240	1125.76038	214.66359	648.81024	1231.23157	230.85558	667.69043	1209.61743	159.82126	723.19330	1265.77063	247.51794	418.62512	1155.30090	-241.56139	428.97531	1075.96021	-262.35858	369.16788	1036.85620	-190.74413	428.96127	929.48004	-271.61682	529.91339	871.91229	-244.49294	468.77438	839.78992	-264.80698	568.99304	800.91400	-269.23553
18807	75.22400	370.60602	1412.87036	19.13917	423.97662	1361.96631	185.63828	419.56238	1365.66272	-174.67958	524.65332	1314.47717	-0.09449	477.05978	1162.60364	240.82153	510.07205	1119.75269	251.37648	521.41022	1058.23523	160.37405	620.06763	1126.50500	214.38155	648.50037	1232.15198	230.54988	667.62134	1210.65466	159.47765	722.46014	1267.24316	247.23627	418.67227	1155.31140	-241.55405	429.06744	1075.99463	-262.36569	369.28195	1036.83850	-190.73668	429.15543	929.51727	-271.65222	530.13867	872.00000	-244.54323	469.01541	839.84662	-264.85074	569.27118	801.04700	-269.31262
18808	75.22800	370.50302	1412.81567	19.17735	423.96896	1361.94043	185.65617	419.47101	1365.66956	-174.64616	524.61029	1314.52185	-0.08503	477.42535	1162.69507	240.75571	510.46967	1119.93787	251.26314	522.04602	1058.63501	160.14076	620.28400	1127.23865	214.08925	648.15381	1233.07300	230.25049	667.74463	1211.67749	159.09035	721.73792	1268.64258	246.96442	418.71164	1155.32288	-241.54512	429.15765	1076.02234	-262.36288	369.38556	1036.81323	-190.74036	429.34805	929.54395	-271.68439	530.36035	872.08282	-244.59785	469.25610	839.90503	-264.89072	569.53766	801.17328	-269.38733
18809	75.23200	370.39862	1412.76172	19.21602	423.95743	1361.92566	185.67024	419.37350	1365.66711	-174.61633	524.56506	1314.55481	-0.07299	477.80264	1162.79858	240.70012	510.84756	1120.12244	251.15410	522.74524	1059.11267	159.84946	620.47998	1127.96729	213.79021	647.78278	1233.96680	229.96452	667.56396	1212.67053	158.80826	721.13562	1269.99487	246.67310	418.74686	1155.32947	-241.53362	429.24088	1076.04712	-262.37469	369.48929	1036.79761	-190.74432	429.54266	929.56207	-271.71796	530.58008	872.16620	-244.65271	469.50031	839.95007	-264.92407	569.81134	801.28748	-269.45969
18810	75.23600	370.29803	1412.69897	19.25726	423.94418	1361.91541	185.68933	419.26562	1365.66394	-174.58786	524.51056	1314.59253	-0.06782	478.11737	1162.84302	240.56310	511.22354	1120.30579	251.04573	523.16705	1059.20764	159.72841	620.69342	1128.77014	213.19899	647.44946	1234.85059	229.67082	667.29724	1213.68457	158.55333	720.54047	1271.31641	246.33780	418.77191	1155.34875	-241.53200	429.31622	1076.07239	-262.39047	369.58969	1036.78284	-190.73805	429.72852	929.58734	-271.76019	530.80359	872.25116	-244.71376	469.74448	839.99640	-264.96735	570.08173	801.40662	-269.53952
18811	75.24000	370.19922	1412.63257	19.28577	423.92508	1361.89844	185.70543	419.15112	1365.66406	-174.56786	524.44940	1314.63257	-0.06997	478.34070	1162.80078	240.30151	511.60461	1120.48389	250.94664	523.83032	1059.58984	159.43988	620.92761	1129.64978	212.24602	647.10699	1235.73425	229.39134	666.98901	1214.68262	158.30214	719.99243	1272.67188	246.01894	418.79562	1155.35596	-241.53593	429.39435	1076.09277	-262.40714	369.68231	1036.75391	-190.73351	429.90796	929.60992	-271.79346	531.03040	872.33936	-244.77815	469.98364	840.04083	-265.02951	570.34381	801.51740	-269.62399
18812	75.24400	370.09506	1412.57764	19.31236	423.90024	1361.87573	185.71371	419.03333	1365.65857	-174.53615	524.39398	1314.66980	-0.06760	478.67667	1162.87256	240.19608	511.98608	1120.66772	250.86111	524.25940	1059.69629	159.31126	621.08502	1130.35413	211.84000	646.74664	1236.60901	229.12175	666.69128	1215.68201	158.02808	719.44690	1274.00183	245.70226	418.81268	1155.36670	-241.54811	429.47562	1076.09949	-262.42062	369.77200	1036.71997	-190.72574	430.07837	929.63312	-271.82794	531.25134	872.43506	-244.84335	470.22327	840.08575	-265.08490	570.59741	801.63141	-269.71475
18813	75.24800	369.99130	1412.52393	19.33719	423.87494	1361.85083	185.72415	418.91544	1365.65222	-174.51117	524.33997	1314.71069	-0.07208	479.04254	1162.98694	240.15039	512.34845	1120.85950	250.77155	525.02142	1060.23499	158.90099	621.20435	1131.01245	211.57387	646.38214	1237.45105	228.83910	666.34375	1216.63721	157.70987	718.88226	1275.33643	245.35608	418.82187	1155.37341	-241.55385	429.54837	1076.10400	-262.42804	369.86230	1036.68274	-190.72119	430.23843	929.65314	-271.86514	531.47601	872.52570	-244.90823	470.45557	840.12799	-265.13629	570.84729	801.74854	-269.81973
18814	75.25200	369.88092	1412.46582	19.35289	423.84024	1361.82568	185.72714	418.79623	1365.64087	-174.49892	524.28882	1314.75952	-0.07644	479.40836	1163.09167	240.09773	512.70148	1121.04663	250.66223	525.51349	1060.40784	158.76782	621.32556	1131.65320	211.34007	646.09747	1238.21814	228.51927	665.95984	1217.53284	157.40872	718.29248	1276.64209	245.00209	418.82513	1155.37329	-241.55389	429.61563	1076.11414	-262.44427	369.94739	1036.64612	-190.71585	430.39822	929.66333	-271.89883	531.69244	872.61353	-244.98456	470.68204	840.16577	-265.19168	571.10547	801.87085	-269.92361
18815	75.25600	369.76929	1412.40894	19.36493	423.79102	1361.79736	185.73271	418.67960	1365.62891	-174.47948	524.24249	1314.79858	-0.06747	479.75528	1163.17493	240.03018	513.07068	1121.24585	250.54410	525.96594	1060.53345	158.68506	621.69720	1132.44104	211.02177	645.85828	1238.88892	228.16942	665.85388	1218.75562	157.10434	717.74207	1277.94104	244.67537	418.83224	1155.37280	-241.55685	429.67599	1076.11780	-262.45963	370.02802	1036.61108	-190.70761	430.55209	929.66589	-271.93320	531.89349	872.69629	-245.05956	470.90787	840.20007	-265.25366	571.28632	802.07111	-270.18411
18816	75.26000	369.65695	1412.35339	19.37144	423.73431	1361.76868	185.73030	418.56998	1365.62207	-174.45448	524.19128	1314.83960	-0.05629	480.09311	1163.25879	239.96519	513.44000	1121.44531	250.40933	526.76654	1061.14941	158.25084	622.35382	1133.42310	210.62584	645.51404	1239.67480	227.89771	665.58832	1219.83472	156.77109	717.18768	1279.27173	244.33420	418.83337	1155.37268	-241.56424	429.72900	1076.12329	-262.47458	370.11328	1036.57727	-190.70293	430.70248	929.67096	-271.96677	532.08777	872.76331	-245.12950	471.12711	840.24011	-265.32053	571.42731	802.29382	-270.49289
18817	75.26400	369.54727	1412.29651	19.38311	423.66605	1361.73743	185.72180	418.46243	1365.60901	-174.43420	524.13562	1314.88806	-0.05974	480.43484	1163.34229	239.88988	513.80389	1121.63098	250.25475	527.36786	1061.47400	158.00739	622.58783	1134.15271	210.35918	645.15790	1240.49023	227.63486	664.98328	1220.45593	156.55315	716.61945	1280.59119	243.99620	418.83282	1155.37085	-241.57277	429.77530	1076.13220	-262.49548	370.19162	1036.54333	-190.69185	430.85342	929.66956	-271.99875	532.27631	872.82971	-245.18767	471.33575	840.27502	-265.38449	571.80011	802.25092	-270.29391
